Coordinates
nRows=5
nColumns=38

# SIMM Motion File Header:
name Coordinates
datacolumns 38
datarows 5
otherdata 1
range 1.69100000000000010000 1.69500000000000010000

Units are S.I. units (second, meters, Newtons, ...)
Angles are in degrees.

endheader
time	pelvis_tilt	pelvis_list	pelvis_rotation	pelvis_tx	pelvis_ty	pelvis_tz	hip_flexion_r	hip_adduction_r	hip_rotation_r	knee_angle_r	ankle_angle_r	subtalar_angle_r	mtp_angle_r	hip_flexion_l	hip_adduction_l	hip_rotation_l	knee_angle_l	ankle_angle_l	subtalar_angle_l	mtp_angle_l	lumbar_extension	lumbar_bending	lumbar_rotation	arm_flex_r	arm_add_r	arm_rot_r	elbow_flex_r	pro_sup_r	wrist_flex_r	wrist_dev_r	arm_flex_l	arm_add_l	arm_rot_l	elbow_flex_l	pro_sup_l	wrist_flex_l	wrist_dev_l
      1.69100000000000010000	     -3.86027962540820950000	     -2.08732425430283940000	     -2.75760131865773330000	      0.78700934241553955000	      0.98563371552363466000	     -0.44582590306309039000	     13.01312733202675900000	      4.69597268092460670000	     -1.74937192635641850000	    -37.02036892007073000000	     13.92376032651140800000	      0.00000000000000099143	      0.00000000000001717864	     28.80801582446704900000	     -4.78211837786557670000	     -0.27630029705504655000	    -81.57710729492789900000	     -6.10821968111809620000	     -0.00000000000000678126	      0.00000000000001299508	     -6.36086664808954350000	      8.01561731760319240000	      0.24139910775752754000	    -12.65260077139462100000	    -17.14263149814901900000	      5.27048772529186230000	    101.46265281598595000000	     82.80783420280131700000	      0.00000000000000835150	     -0.00000000000000512814	    -23.96367057281547700000	    -35.69113573073825300000	     23.82435699459573200000	    102.46996921754969000000	     74.96122518004148100000	      0.00000000000000150550	     -0.00000000000000040573
      1.69199999999999990000	     -3.88758084191229790000	     -2.01778419325305690000	     -2.75847480769792370000	      0.78689637659716161000	      0.98593495860082259000	     -0.44583849271335035000	     12.85794995681032300000	      4.62664112485772530000	     -1.70708368023101590000	    -36.89728380061289700000	     13.83819565058081100000	      0.00000000000000099989	      0.00000000000001732425	     28.94518647341593700000	     -4.69792558526836320000	     -0.28449785761018370000	    -81.42578021789010700000	     -6.02892712872406200000	     -0.00000000000000689560	      0.00000000000001306633	     -6.33754108750285370000	      7.94627688049113970000	      0.33970804278759309000	    -12.56247814133406300000	    -17.09779019733583300000	      5.28926714586353610000	    101.57975872246189000000	     82.96775590402622000000	      0.00000000000000850449	     -0.00000000000000521624	    -24.12326340512751000000	    -35.79315070522113700000	     23.84666212809987900000	    102.56542533758412000000	     74.88799200088745100000	      0.00000000000000151367	     -0.00000000000000040108
      1.69300000000000010000	     -3.91577150733687240000	     -1.94739446164210480000	     -2.75923671440697050000	      0.78678774904945459000	      0.98624327779250998000	     -0.44585305915305851000	     12.70267583721142300000	      4.55637591806788130000	     -1.66400365017790940000	    -36.77227739579608800000	     13.74866362538553600000	      0.00000000000000103976	      0.00000000000001742832	     29.08103319422835800000	     -4.61255321184903440000	     -0.29317242244299874000	    -81.26963973062287000000	     -5.95171099281562910000	     -0.00000000000000700889	      0.00000000000001314175	     -6.31245135365813860000	      7.87594373441321860000	      0.43732404707793437000	    -12.47350442706462700000	    -17.05292233968661000000	      5.30843394432741000000	    101.69747573693365000000	     83.12209941210062400000	      0.00000000000000865824	     -0.00000000000000530323	    -24.28370707258321200000	    -35.89563239764484600000	     23.86893622110802600000	    102.66195921196039000000	     74.81569816265218300000	      0.00000000000000152157	     -0.00000000000000040904
      1.69400000000000000000	     -3.94481848879763100000	     -1.87620821502187170000	     -2.75990119175039750000	      0.78668348832634027000	      0.98655863170772629000	     -0.44586961910201961000	     12.54730984845655500000	      4.48520332347736250000	     -1.62022672225939910000	    -36.64540470404612200000	     13.65510027374141600000	      0.00000000000000112479	      0.00000000000001749537	     29.21550276309558200000	     -4.52607359706625090000	     -0.30231792482849906000	    -81.10870448485256600000	     -5.87656461624269880000	     -0.00000000000000711938	      0.00000000000001320815	     -6.28564376795044130000	      7.80468365047036450000	      0.53424940117113373000	    -12.38569006997506200000	    -17.00805126608768300000	      5.32801313614393910000	    101.81578870009615000000	     83.27054964920527900000	      0.00000000000000881110	     -0.00000000000000538719	    -24.44501248555630100000	    -35.99850945622175400000	     23.89113925485325400000	    102.75946812109379000000	     74.74435670134339200000	      0.00000000000000152977	     -0.00000000000000042466
      1.69500000000000010000	     -3.97470877029161950000	     -1.80427764825355250000	     -2.76048202239586970000	      0.78658361210126260000	      0.98688094015111272000	     -0.44588818816409631000	     12.39188206228389800000	      4.41314983788092530000	     -1.57585008098341550000	    -36.51672649783462500000	     13.55744400314385000000	      0.00000000000000123794	      0.00000000000001757092	     29.34856707881668900000	     -4.43855879930134910000	     -0.31192617489297947000	    -80.94299555547462400000	     -5.80347826266124130000	     -0.00000000000000722789	      0.00000000000001326638	     -6.25714251618783110000	      7.73256218885908630000	      0.63048541964124449000	    -12.29905023600763200000	    -16.96319942566390900000	      5.34802611589170860000	    101.93468310732538000000	     83.41281236600687500000	      0.00000000000000896347	     -0.00000000000000546847	    -24.60719392381453800000	    -36.10170857991724300000	     23.91322774675581900000	    102.85785131816377000000	     74.67397469408189200000	      0.00000000000000153715	     -0.00000000000000046170
